<?xml version="1.0" encoding="UTF-8"?>
<!DOCTYPE svg PUBLIC "-//W3C//DTD SVG 1.1//EN" "http://www.w3.org/Graphics/SVG/1.1/DTD/svg11.dtd">
<svg xmlns="http://www.w3.org/2000/svg" version="1.1" width="930px" height="158px" style="shape-rendering:geometricPrecision; text-rendering:geometricPrecision; image-rendering:optimizeQuality; fill-rule:evenodd; clip-rule:evenodd" xmlns:xlink="http://www.w3.org/1999/xlink">
<g><path style="opacity:0.959" fill="#ffffff" d="M 908.5,7.5 C 909.043,7.55999 909.376,7.89333 909.5,8.5C 898.394,22.4427 886.727,35.9427 874.5,49C 844.607,56.0783 814.607,62.5783 784.5,68.5C 776.101,93.0291 767.101,117.362 757.5,141.5C 756.975,142.192 756.308,142.692 755.5,143C 744.97,145.039 734.47,147.206 724,149.5C 723.5,149.167 723,148.833 722.5,148.5C 734.553,116.831 746.887,85.3311 759.5,54C 809.425,38.9422 859.092,23.4422 908.5,7.5 Z"/></g>
<g><path style="opacity:0.956" fill="#ffffff" d="M 862.5,55.5 C 864.527,55.3379 866.527,55.5045 868.5,56C 855.872,70.9639 842.872,85.6305 829.5,100C 811.879,102.072 794.212,103.572 776.5,104.5C 780.167,93.8333 783.833,83.1667 787.5,72.5C 812.718,67.2761 837.718,61.6095 862.5,55.5 Z"/></g>
<g><path style="opacity:0.914" fill="#908f8e" d="M 419.5,62.5 C 429.72,60.2067 436.386,63.8733 439.5,73.5C 438.635,79.1989 435.635,83.3656 430.5,86C 432.393,88.3031 434.393,90.4698 436.5,92.5C 437.148,90.8508 438.148,89.5175 439.5,88.5C 442.29,89.1965 444.957,90.1965 447.5,91.5C 446.455,94.8059 445.122,97.9726 443.5,101C 446.001,102.673 448.334,104.507 450.5,106.5C 447.071,114.926 442.571,115.593 437,108.5C 431,113.233 424.166,114.733 416.5,113C 406.858,109.886 403.358,103.386 406,93.5C 408.674,89.6599 411.841,86.3266 415.5,83.5C 409.021,74.6405 410.354,67.6405 419.5,62.5 Z M 423.5,69.5 C 428.547,69.3756 430.38,71.7089 429,76.5C 427.488,77.2567 426.154,78.2567 425,79.5C 423.596,77.6061 422.43,75.6061 421.5,73.5C 421.752,71.9271 422.418,70.5938 423.5,69.5 Z M 420.5,90.5 C 423.825,93.8323 426.825,97.4989 429.5,101.5C 423.562,107.346 418.895,106.513 415.5,99C 416.137,95.5369 417.803,92.7035 420.5,90.5 Z"/></g>
<g><path style="opacity:0.95" fill="#7a7978" d="M 22.5,66.5 C 26.5,66.5 30.5,66.5 34.5,66.5C 34.5,81.8333 34.5,97.1667 34.5,112.5C 30.5,112.5 26.5,112.5 22.5,112.5C 22.5,97.1667 22.5,81.8333 22.5,66.5 Z"/></g>
<g><path style="opacity:0.973" fill="#7a7978" d="M 43.5,66.5 C 70.1667,66.5 96.8333,66.5 123.5,66.5C 123.5,81.8333 123.5,97.1667 123.5,112.5C 119.5,112.5 115.5,112.5 111.5,112.5C 111.5,101.167 111.5,89.8333 111.5,78.5C 92.8333,78.5 74.1667,78.5 55.5,78.5C 55.5,89.8333 55.5,101.167 55.5,112.5C 51.5,112.5 47.5,112.5 43.5,112.5C 43.5,97.1667 43.5,81.8333 43.5,66.5 Z"/></g>
<g><path style="opacity:0.98" fill="#7a7978" d="M 133.5,66.5 C 160.167,66.5 186.833,66.5 213.5,66.5C 213.5,70.5 213.5,74.5 213.5,78.5C 202.167,78.5 190.833,78.5 179.5,78.5C 179.5,89.8333 179.5,101.167 179.5,112.5C 175.5,112.5 171.5,112.5 167.5,112.5C 167.5,101.167 167.5,89.8333 167.5,78.5C 156.167,78.5 144.833,78.5 133.5,78.5C 133.5,74.5 133.5,70.5 133.5,66.5 Z"/></g>
<g><path style="opacity:0.993" fill="#7a7978" d="M 222.5,66.5 C 249.167,66.5 275.833,66.5 302.5,66.5C 302.5,70.5 302.5,74.5 302.5,78.5C 279.833,78.5 257.167,78.5 234.5,78.5C 234.5,80.5 234.5,82.5 234.5,84.5C 257.167,84.5 279.833,84.5 302.5,84.5C 302.5,88.1667 302.5,91.8333 302.5,95.5C 279.833,95.5 257.167,95.5 234.5,95.5C 234.5,97.5 234.5,99.5 234.5,101.5C 257.167,101.5 279.833,101.5 302.5,101.5C 302.5,105.167 302.5,108.833 302.5,112.5C 275.833,112.5 249.167,112.5 222.5,112.5C 222.5,97.1667 222.5,81.8333 222.5,66.5 Z"/></g>
<g><path style="opacity:0.973" fill="#7a7978" d="M 312.5,66.5 C 339.167,66.5 365.833,66.5 392.5,66.5C 392.5,70.5 392.5,74.5 392.5,78.5C 369.833,78.5 347.167,78.5 324.5,78.5C 324.5,85.8333 324.5,93.1667 324.5,100.5C 347.167,100.5 369.833,100.5 392.5,100.5C 392.5,104.5 392.5,108.5 392.5,112.5C 365.833,112.5 339.167,112.5 312.5,112.5C 312.5,97.1667 312.5,81.8333 312.5,66.5 Z"/></g>
<g><path style="opacity:0.989" fill="#d41c28" d="M 458.5,66.5 C 485.167,66.5 511.833,66.5 538.5,66.5C 538.5,70.5 538.5,74.5 538.5,78.5C 515.833,78.5 493.167,78.5 470.5,78.5C 470.5,80.5 470.5,82.5 470.5,84.5C 493.167,84.5 515.833,84.5 538.5,84.5C 538.5,88.1667 538.5,91.8333 538.5,95.5C 515.833,95.5 493.167,95.5 470.5,95.5C 470.5,101.167 470.5,106.833 470.5,112.5C 466.5,112.5 462.5,112.5 458.5,112.5C 458.5,97.1667 458.5,81.8333 458.5,66.5 Z"/></g>
<g><path style="opacity:0.972" fill="#d41c28" d="M 547.5,66.5 C 574.167,66.5 600.833,66.5 627.5,66.5C 627.5,81.8333 627.5,97.1667 627.5,112.5C 600.833,112.5 574.167,112.5 547.5,112.5C 547.5,97.1667 547.5,81.8333 547.5,66.5 Z M 559.5,78.5 C 578.167,78.5 596.833,78.5 615.5,78.5C 615.5,85.8333 615.5,93.1667 615.5,100.5C 596.833,100.5 578.167,100.5 559.5,100.5C 559.5,93.1667 559.5,85.8333 559.5,78.5 Z"/></g>
<g><path style="opacity:0.968" fill="#d41c28" d="M 637.5,66.5 C 664.167,66.5 690.833,66.5 717.5,66.5C 717.5,78.1667 717.5,89.8333 717.5,101.5C 713.833,101.5 710.167,101.5 706.5,101.5C 706.5,105.167 706.5,108.833 706.5,112.5C 702.167,112.5 697.833,112.5 693.5,112.5C 693.5,108.833 693.5,105.167 693.5,101.5C 678.833,101.5 664.167,101.5 649.5,101.5C 649.5,105.167 649.5,108.833 649.5,112.5C 645.5,112.5 641.5,112.5 637.5,112.5C 637.5,97.1667 637.5,81.8333 637.5,66.5 Z M 649.5,78.5 C 668.167,78.5 686.833,78.5 705.5,78.5C 705.5,82.1667 705.5,85.8333 705.5,89.5C 686.833,89.5 668.167,89.5 649.5,89.5C 649.5,85.8333 649.5,82.1667 649.5,78.5 Z"/></g>
<g><path style="opacity:0.941" fill="#ffffff" d="M 813.5,105.5 C 817.182,105.335 820.848,105.501 824.5,106C 816.686,115.315 808.686,124.481 800.5,133.5C 787.978,136.805 775.311,139.471 762.5,141.5C 766.167,130.833 769.833,120.167 773.5,109.5C 787.018,108.575 800.351,107.242 813.5,105.5 Z"/></g>
<g><path style="opacity:0.667" fill="#003b77" d="M 455.5,117.5 C 460.814,117.239 461.314,117.906 457,119.5C 455.97,119.164 455.47,118.497 455.5,117.5 Z"/></g>
<g><path style="opacity:0.78" fill="#ffffff" d="M 20.5,120.5 C 21.8333,120.5 23.1667,120.5 24.5,120.5C 24.5,125.167 24.5,129.833 24.5,134.5C 23.1667,134.5 21.8333,134.5 20.5,134.5C 20.5,129.833 20.5,125.167 20.5,120.5 Z"/></g>
<g><path style="opacity:0.787" fill="#ffffff" d="M 34.5,120.5 C 36.1992,120.34 37.8659,120.506 39.5,121C 41.3773,123.251 42.8773,125.751 44,128.5C 44.567,125.832 45.067,123.166 45.5,120.5C 46.5,120.5 47.5,120.5 48.5,120.5C 48.5,125.167 48.5,129.833 48.5,134.5C 46.8008,134.66 45.1341,134.494 43.5,134C 41.2728,131.436 39.4394,128.603 38,125.5C 37.502,128.482 37.3354,131.482 37.5,134.5C 36.1667,134.5 34.8333,134.5 33.5,134.5C 34.3136,129.881 34.6469,125.214 34.5,120.5 Z"/></g>
<g><path style="opacity:0.83" fill="#ffffff" d="M 56.5,120.5 C 60.8839,120.174 65.2172,120.508 69.5,121.5C 68.0095,122.244 66.5095,122.91 65,123.5C 64.5014,127.152 64.3347,130.818 64.5,134.5C 63.1667,134.5 61.8333,134.5 60.5,134.5C 60.2408,130.76 60.5741,127.094 61.5,123.5C 59.3449,122.999 57.6782,121.999 56.5,120.5 Z"/></g>
<g><path style="opacity:0.869" fill="#ffffff" d="M 77.5,120.5 C 81.226,120.177 84.8927,120.511 88.5,121.5C 86.2573,122.474 83.924,122.808 81.5,122.5C 81.5,123.833 81.5,125.167 81.5,126.5C 89.5,127.167 89.5,127.833 81.5,128.5C 81.5,129.833 81.5,131.167 81.5,132.5C 83.924,132.192 86.2573,132.526 88.5,133.5C 84.8927,134.489 81.226,134.823 77.5,134.5C 77.5,129.833 77.5,125.167 77.5,120.5 Z"/></g>
<g><path style="opacity:0.815" fill="#ffffff" d="M 97.5,120.5 C 98.8333,120.5 100.167,120.5 101.5,120.5C 101.5,124.5 101.5,128.5 101.5,132.5C 103.604,132.201 105.604,132.534 107.5,133.5C 103.878,134.659 100.211,134.825 96.5,134C 97.4667,129.599 97.8,125.099 97.5,120.5 Z"/></g>
<g><path style="opacity:0.786" fill="#ffffff" d="M 116.5,120.5 C 117.833,120.5 119.167,120.5 120.5,120.5C 119.771,125.13 119.437,129.797 119.5,134.5C 118.167,134.5 116.833,134.5 115.5,134.5C 115.437,129.797 115.771,125.13 116.5,120.5 Z"/></g>
<g><path style="opacity:0.772" fill="#ffffff" d="M 133.5,120.5 C 137.315,119.918 140.649,120.752 143.5,123C 141.623,123.576 139.789,123.409 138,122.5C 132.848,124.119 131.681,127.119 134.5,131.5C 136.071,132.309 137.738,132.643 139.5,132.5C 139.672,130.508 139.005,128.842 137.5,127.5C 139.396,126.534 141.396,126.201 143.5,126.5C 143.768,129.119 143.435,131.619 142.5,134C 138.375,134.854 134.375,134.52 130.5,133C 127.371,127.808 128.371,123.642 133.5,120.5 Z"/></g>
<g><path style="opacity:0.869" fill="#ffffff" d="M 152.5,120.5 C 156.226,120.177 159.893,120.511 163.5,121.5C 161.257,122.474 158.924,122.808 156.5,122.5C 156.5,123.833 156.5,125.167 156.5,126.5C 164.5,127.167 164.5,127.833 156.5,128.5C 156.5,129.833 156.5,131.167 156.5,132.5C 158.924,132.192 161.257,132.526 163.5,133.5C 159.893,134.489 156.226,134.823 152.5,134.5C 152.5,129.833 152.5,125.167 152.5,120.5 Z"/></g>
<g><path style="opacity:0.753" fill="#ffffff" d="M 173.5,120.5 C 178.236,121.053 181.403,123.719 183,128.5C 183.497,125.854 183.664,123.187 183.5,120.5C 184.833,120.5 186.167,120.5 187.5,120.5C 187.772,124.902 187.439,129.235 186.5,133.5C 184.833,134.833 183.167,134.833 181.5,133.5C 180,131.167 178.5,128.833 177,126.5C 176.503,129.146 176.336,131.813 176.5,134.5C 175.167,134.5 173.833,134.5 172.5,134.5C 172.669,129.819 173.002,125.152 173.5,120.5 Z"/></g>
<g><path style="opacity:0.774" fill="#ffffff" d="M 199.5,120.5 C 202.572,120.183 205.572,120.516 208.5,121.5C 203.991,121.74 200.991,123.907 199.5,128C 201.279,131.659 204.279,133.492 208.5,133.5C 204.472,134.959 200.639,134.626 197,132.5C 194.696,127.855 195.529,123.855 199.5,120.5 Z"/></g>
<g><path style="opacity:0.779" fill="#ffffff" d="M 217.5,120.5 C 218.833,120.5 220.167,120.5 221.5,120.5C 221.5,125.167 221.5,129.833 221.5,134.5C 220.167,134.5 218.833,134.5 217.5,134.5C 217.5,129.833 217.5,125.167 217.5,120.5 Z"/></g>
<g><path style="opacity:0.773" fill="#ffffff" d="M 235.5,120.5 C 237.467,120.261 239.301,120.594 241,121.5C 242.598,125.461 244.098,129.461 245.5,133.5C 242.251,135.222 240.418,134.222 240,130.5C 236.629,128.725 234.462,129.725 233.5,133.5C 231.926,134.631 230.259,134.798 228.5,134C 231.497,129.839 233.83,125.339 235.5,120.5 Z M 237.5,124.5 C 240.377,126.846 240.044,127.679 236.5,127C 237.252,126.329 237.586,125.496 237.5,124.5 Z"/></g>
<g><path style="opacity:0.84" fill="#ffffff" d="M 278.5,120.5 C 282.555,120.176 286.555,120.509 290.5,121.5C 289.311,122.429 287.978,122.762 286.5,122.5C 286.5,126.5 286.5,130.5 286.5,134.5C 285.167,134.5 283.833,134.5 282.5,134.5C 282.5,130.5 282.5,126.5 282.5,122.5C 280.517,122.843 279.183,122.176 278.5,120.5 Z"/></g>
<g><path style="opacity:0.869" fill="#ffffff" d="M 298.5,120.5 C 302.226,120.177 305.893,120.511 309.5,121.5C 307.257,122.474 304.924,122.808 302.5,122.5C 302.5,123.833 302.5,125.167 302.5,126.5C 310.5,127.167 310.5,127.833 302.5,128.5C 302.5,129.833 302.5,131.167 302.5,132.5C 304.924,132.192 307.257,132.526 309.5,133.5C 305.893,134.489 302.226,134.823 298.5,134.5C 298.5,129.833 298.5,125.167 298.5,120.5 Z"/></g>
<g><path style="opacity:0.802" fill="#ffffff" d="M 322.5,120.5 C 325.722,120.108 328.722,120.608 331.5,122C 324.39,121.43 321.723,124.43 323.5,131C 325.804,131.895 328.138,132.729 330.5,133.5C 321.707,136.526 317.873,133.526 319,124.5C 319.69,122.65 320.856,121.316 322.5,120.5 Z"/></g>
<g><path style="opacity:0.757" fill="#ffffff" d="M 339.5,120.5 C 341.604,120.201 343.604,120.534 345.5,121.5C 347.2,124.039 348.7,126.705 350,129.5C 350.498,126.518 350.665,123.518 350.5,120.5C 351.833,120.5 353.167,120.5 354.5,120.5C 354.167,125.167 353.833,129.833 353.5,134.5C 348.764,133.947 345.597,131.281 344,126.5C 343.503,129.146 343.336,131.813 343.5,134.5C 342.167,134.5 340.833,134.5 339.5,134.5C 339.5,129.833 339.5,125.167 339.5,120.5 Z"/></g>
<g><path style="opacity:0.751" fill="#ffffff" d="M 366.5,120.5 C 377.729,118.546 381.396,122.712 377.5,133C 372.889,135.116 368.389,134.949 364,132.5C 361.696,127.855 362.529,123.855 366.5,120.5 Z M 369.5,122.5 C 373.017,122.351 375.017,124.018 375.5,127.5C 372.814,133.898 369.814,134.065 366.5,128C 367.124,125.915 368.124,124.082 369.5,122.5 Z"/></g>
<g><path style="opacity:0.808" fill="#ffffff" d="M 388.5,120.5 C 389.833,120.5 391.167,120.5 392.5,120.5C 392.759,124.24 392.426,127.906 391.5,131.5C 393.833,132.167 396.167,132.833 398.5,133.5C 394.893,134.489 391.226,134.823 387.5,134.5C 388.229,129.87 388.563,125.203 388.5,120.5 Z"/></g>
<g><path style="opacity:0.763" fill="#ffffff" d="M 410.5,120.5 C 421.301,119.112 424.634,123.279 420.5,133C 415.564,135.415 411.064,134.915 407,131.5C 405.053,126.842 406.219,123.176 410.5,120.5 Z M 413.5,122.5 C 418.341,123.302 419.675,125.969 417.5,130.5C 414.041,132.963 411.375,132.129 409.5,128C 410.036,125.492 411.369,123.659 413.5,122.5 Z"/></g>
<g><path style="opacity:0.772" fill="#ffffff" d="M 435.5,120.5 C 439.315,119.918 442.649,120.752 445.5,123C 443.623,123.576 441.789,123.409 440,122.5C 434.848,124.119 433.681,127.119 436.5,131.5C 438.071,132.309 439.738,132.643 441.5,132.5C 441.672,130.508 441.005,128.842 439.5,127.5C 441.396,126.534 443.396,126.201 445.5,126.5C 445.768,129.119 445.435,131.619 444.5,134C 440.375,134.854 436.375,134.52 432.5,133C 429.371,127.808 430.371,123.642 435.5,120.5 Z"/></g>
<g><path style="opacity:0.792" fill="#ffffff" d="M 454.5,120.5 C 455.833,120.5 457.167,120.5 458.5,120.5C 458.5,125.167 458.5,129.833 458.5,134.5C 457.167,134.5 455.833,134.5 454.5,134.5C 454.5,129.833 454.5,125.167 454.5,120.5 Z"/></g>
<g><path style="opacity:0.781" fill="#ffffff" d="M 472.5,120.5 C 474.5,120.5 476.5,120.5 478.5,120.5C 479.833,125.167 481.167,129.833 482.5,134.5C 478.849,134.838 477.183,133.172 477.5,129.5C 475.801,129.34 474.134,129.506 472.5,130C 471.733,132.053 470.4,133.553 468.5,134.5C 467.833,134.167 467.167,133.833 466.5,133.5C 468.785,129.265 470.785,124.931 472.5,120.5 Z M 474.5,124.5 C 477.377,126.846 477.044,127.679 473.5,127C 474.252,126.329 474.586,125.496 474.5,124.5 Z"/></g>
<g><path style="opacity:0.77" fill="#ffffff" d="M 502.5,120.5 C 505.808,119.974 507.974,121.307 509,124.5C 510.08,120.888 512.247,119.888 515.5,121.5C 514.243,123.679 512.743,125.679 511,127.5C 510.503,129.81 510.337,132.143 510.5,134.5C 509.167,134.5 507.833,134.5 506.5,134.5C 506.663,132.143 506.497,129.81 506,127.5C 504.295,125.423 503.128,123.09 502.5,120.5 Z"/></g>
<g><path style="opacity:0.865" fill="#ffffff" d="M 536.5,120.5 C 539.898,120.18 543.232,120.513 546.5,121.5C 538.18,123.367 537.847,125.367 545.5,127.5C 543.604,128.466 541.604,128.799 539.5,128.5C 539.5,130.5 539.5,132.5 539.5,134.5C 538.167,134.5 536.833,134.5 535.5,134.5C 535.669,129.819 536.002,125.152 536.5,120.5 Z"/></g>
<g><path style="opacity:0.75" fill="#ffffff" d="M 558.5,120.5 C 562.584,120.043 566.417,120.71 570,122.5C 572.319,132.182 568.485,136.016 558.5,134C 554.876,131.839 553.709,128.672 555,124.5C 555.69,122.65 556.856,121.316 558.5,120.5 Z M 561.5,122.5 C 569.103,124.997 569.436,128.33 562.5,132.5C 557.618,129.634 557.285,126.301 561.5,122.5 Z"/></g>
<g><path style="opacity:0.755" fill="#ffffff" d="M 580.5,120.5 C 584.106,120.211 587.606,120.544 591,121.5C 591.864,124.739 591.031,127.406 588.5,129.5C 589.624,130.914 590.624,132.414 591.5,134C 589.741,134.798 588.074,134.631 586.5,133.5C 584.082,126.806 583.082,127.139 583.5,134.5C 582.167,134.5 580.833,134.5 579.5,134.5C 579.437,129.797 579.771,125.13 580.5,120.5 Z M 583.5,122.5 C 587.161,122.35 588.161,123.85 586.5,127C 585.552,127.483 584.552,127.649 583.5,127.5C 583.5,125.833 583.5,124.167 583.5,122.5 Z"/></g>
<g><path style="opacity:0.84" fill="#ffffff" d="M 599.5,120.5 C 603.555,120.176 607.555,120.509 611.5,121.5C 610.311,122.429 608.978,122.762 607.5,122.5C 607.5,126.5 607.5,130.5 607.5,134.5C 606.167,134.5 604.833,134.5 603.5,134.5C 603.5,130.5 603.5,126.5 603.5,122.5C 601.517,122.843 600.183,122.176 599.5,120.5 Z"/></g>
<g><path style="opacity:0.773" fill="#ffffff" d="M 624.5,120.5 C 626.467,120.261 628.301,120.594 630,121.5C 631.598,125.461 633.098,129.461 634.5,133.5C 631.251,135.222 629.418,134.222 629,130.5C 625.629,128.725 623.462,129.725 622.5,133.5C 620.926,134.631 619.259,134.798 617.5,134C 620.497,129.839 622.83,125.339 624.5,120.5 Z M 626.5,124.5 C 629.377,126.846 629.044,127.679 625.5,127C 626.252,126.329 626.586,125.496 626.5,124.5 Z"/></g>
<g><path style="opacity:0.82" fill="#ffffff" d="M 643.5,120.5 C 644.833,120.5 646.167,120.5 647.5,120.5C 646.979,124.481 646.646,128.481 646.5,132.5C 648.924,132.192 651.257,132.526 653.5,133.5C 649.893,134.489 646.226,134.823 642.5,134.5C 642.669,129.819 643.002,125.152 643.5,120.5 Z"/></g>
<g><path style="opacity:0.869" fill="#ffffff" d="M 661.5,120.5 C 665.226,120.177 668.893,120.511 672.5,121.5C 670.257,122.474 667.924,122.808 665.5,122.5C 665.5,123.833 665.5,125.167 665.5,126.5C 673.5,127.167 673.5,127.833 665.5,128.5C 665.5,129.833 665.5,131.167 665.5,132.5C 667.924,132.192 670.257,132.526 672.5,133.5C 668.893,134.489 665.226,134.823 661.5,134.5C 661.5,129.833 661.5,125.167 661.5,120.5 Z"/></g>
<g><path style="opacity:0.837" fill="#ffffff" d="M 681.5,120.5 C 685.555,120.176 689.555,120.509 693.5,121.5C 691.025,125.142 688.358,128.642 685.5,132C 687.9,132.186 690.234,132.686 692.5,133.5C 688.555,134.491 684.555,134.824 680.5,134.5C 681.553,130.095 683.886,126.428 687.5,123.5C 685.025,123.036 683.025,122.036 681.5,120.5 Z"/></g>
<g><path style="opacity:0.794" fill="#ffffff" d="M 706.5,120.5 C 708.288,120.215 709.955,120.548 711.5,121.5C 713.269,125.644 714.936,129.81 716.5,134C 713.162,135.206 711.329,134.04 711,130.5C 707.29,128.887 704.79,130.053 703.5,134C 702.167,134.667 700.833,134.667 699.5,134C 701.974,129.552 704.307,125.052 706.5,120.5 Z M 708.5,124.5 C 709.776,125.386 709.776,126.386 708.5,127.5C 707.438,126.575 707.438,125.575 708.5,124.5 Z"/></g>
<g><path style="opacity:0.719" fill="#ffffff" d="M 253.5,132.5 C 258.137,132.492 258.303,133.826 254,136.5C 253.5,136.167 253,135.833 252.5,135.5C 253.127,134.583 253.461,133.583 253.5,132.5 Z"/></g>
</svg>
